<svg xmlns="http://www.w3.org/2000/svg" xmlns:xlink="http://www.w3.org/1999/xlink" version="1.1" x="0px" y="0px" viewBox="0 0 100 125" enable-background="new 0 0 100 100" xml:space="preserve"><path d="M84.223,93.96H66.936c-1.104,0-2-0.896-2-2V53.768L17.045,93.024c-0.598,0.491-1.425,0.593-2.124,0.261  c-0.699-0.331-1.145-1.035-1.145-1.808V8.04c0-0.773,0.446-1.477,1.145-1.808c0.699-0.332,1.525-0.229,2.124,0.261L64.936,45.75  V8.406c0-1.104,0.896-2,2-2h17.287c1.104,0,2,0.896,2,2V91.96C86.223,93.064,85.328,93.96,84.223,93.96z"/><text x="0" y="115" fill="#000000" font-size="5px" font-weight="bold" font-family="'Helvetica Neue', Helvetica, Arial-Unicode, Arial, Sans-serif">Created by H Alberto Gongora</text><text x="0" y="120" fill="#000000" font-size="5px" font-weight="bold" font-family="'Helvetica Neue', Helvetica, Arial-Unicode, Arial, Sans-serif">from the Noun Project</text></svg>